<svg xmlns="http://www.w3.org/2000/svg" xmlns:xlink="http://www.w3.org/1999/xlink"><defs><symbol id="bars--3Qle2" class="svg-inline--fa fa-bars fa-w-14" viewBox="0 0 448 512"><path fill="currentColor" d="M442 114H6a6 6 0 01-6-6V84a6 6 0 016-6h436a6 6 0 016 6v24a6 6 0 01-6 6zm0 160H6a6 6 0 01-6-6v-24a6 6 0 016-6h436a6 6 0 016 6v24a6 6 0 01-6 6zm0 160H6a6 6 0 01-6-6v-24a6 6 0 016-6h436a6 6 0 016 6v24a6 6 0 01-6 6z"/></symbol><symbol id="facebook--xOouj" class="svg-inline--fa fa-facebook-f fa-w-10" viewBox="0 0 320 512"><path fill="currentColor" d="M279.14 288l14.22-92.66h-88.91v-60.13c0-25.35 12.42-50.06 52.24-50.06h40.42V6.26S260.43 0 225.36 0c-73.22 0-121.08 44.38-121.08 124.72v70.62H22.89V288h81.39v224h100.17V288z"/></symbol><symbol id="file-signature--3zu7I" class="svg-inline--fa fa-file-signature fa-w-18" viewBox="0 0 576 512"><path fill="currentColor" d="M560.83 135.96l-24.79-24.79c-20.23-20.24-53-20.26-73.26 0L384 189.72v-57.75c0-12.7-5.1-25-14.1-33.99L286.02 14.1c-9-9-21.2-14.1-33.89-14.1H47.99C21.5.1 0 21.6 0 48.09v415.92C0 490.5 21.5 512 47.99 512h288.02c26.49 0 47.99-21.5 47.99-47.99v-80.54c6.29-4.68 12.62-9.35 18.18-14.95l158.64-159.3c9.79-9.78 15.17-22.79 15.17-36.63s-5.38-26.84-15.16-36.63zM256.03 32.59c2.8.7 5.3 2.1 7.4 4.2l83.88 83.88c2.1 2.1 3.5 4.6 4.2 7.4h-95.48V32.59zm95.98 431.42c0 8.8-7.2 16-16 16H47.99c-8.8 0-16-7.2-16-16V48.09c0-8.8 7.2-16.09 16-16.09h176.04v104.07c0 13.3 10.7 23.93 24 23.93h103.98v61.53l-48.51 48.24c-30.14 29.96-47.42 71.51-47.47 114-3.93-.29-7.47-2.42-9.36-6.27-11.97-23.86-46.25-30.34-66-14.17l-13.88-41.62c-3.28-9.81-12.44-16.41-22.78-16.41s-19.5 6.59-22.78 16.41L103 376.36c-1.5 4.58-5.78 7.64-10.59 7.64H80c-8.84 0-16 7.16-16 16s7.16 16 16 16h12.41c18.62 0 35.09-11.88 40.97-29.53L144 354.58l16.81 50.48c4.54 13.51 23.14 14.83 29.5 2.08l7.66-15.33c4.01-8.07 15.8-8.59 20.22.34C225.44 406.61 239.9 415.7 256 416h32c22.05-.01 43.95-4.9 64.01-13.6v61.61zm27.48-118.05A129.012 129.012 0 01288 384v-.03c0-34.35 13.7-67.29 38.06-91.51l120.55-119.87 52.8 52.8-119.92 120.57zM538.2 186.6l-21.19 21.19-52.8-52.8 21.2-21.19c7.73-7.73 20.27-7.74 28.01 0l24.79 24.79c7.72 7.73 7.72 20.27-.01 28.01z"/></symbol><symbol id="instagram--nt2yL" class="svg-inline--fa fa-instagram fa-w-14" viewBox="0 0 448 512"><path fill="currentColor" d="M224.1 141c-63.6 0-114.9 51.3-114.9 114.9s51.3 114.9 114.9 114.9S339 319.5 339 255.9 287.7 141 224.1 141zm0 189.6c-41.1 0-74.7-33.5-74.7-74.7s33.5-74.7 74.7-74.7 74.7 33.5 74.7 74.7-33.6 74.7-74.7 74.7zm146.4-194.3c0 14.9-12 26.8-26.8 26.8-14.9 0-26.8-12-26.8-26.8s12-26.8 26.8-26.8 26.8 12 26.8 26.8zm76.1 27.2c-1.7-35.9-9.9-67.7-36.2-93.9-26.2-26.2-58-34.4-93.9-36.2-37-2.1-147.9-2.1-184.9 0-35.8 1.7-67.6 9.9-93.9 36.1s-34.4 58-36.2 93.9c-2.1 37-2.1 147.9 0 184.9 1.7 35.9 9.9 67.7 36.2 93.9s58 34.4 93.9 36.2c37 2.1 147.9 2.1 184.9 0 35.9-1.7 67.7-9.9 93.9-36.2 26.2-26.2 34.4-58 36.2-93.9 2.1-37 2.1-147.8 0-184.8zM398.8 388c-7.8 19.6-22.9 34.7-42.6 42.6-29.5 11.7-99.5 9-132.1 9s-102.7 2.6-132.1-9c-19.6-7.8-34.7-22.9-42.6-42.6-11.7-29.5-9-99.5-9-132.1s-2.6-102.7 9-132.1c7.8-19.6 22.9-34.7 42.6-42.6 29.5-11.7 99.5-9 132.1-9s102.7-2.6 132.1 9c19.6 7.8 34.7 22.9 42.6 42.6 11.7 29.5 9 99.5 9 132.1s2.7 102.7-9 132.1z"/></symbol><symbol id="list-alt--_jY5d" class="svg-inline--fa fa-list-alt fa-w-16" viewBox="0 0 512 512"><path fill="currentColor" d="M464 64c8.823 0 16 7.178 16 16v352c0 8.822-7.177 16-16 16H48c-8.823 0-16-7.178-16-16V80c0-8.822 7.177-16 16-16h416m0-32H48C21.49 32 0 53.49 0 80v352c0 26.51 21.49 48 48 48h416c26.51 0 48-21.49 48-48V80c0-26.51-21.49-48-48-48zm-336 96c-17.673 0-32 14.327-32 32s14.327 32 32 32 32-14.327 32-32-14.327-32-32-32zm0 96c-17.673 0-32 14.327-32 32s14.327 32 32 32 32-14.327 32-32-14.327-32-32-32zm0 96c-17.673 0-32 14.327-32 32s14.327 32 32 32 32-14.327 32-32-14.327-32-32-32zm288-148v-24a6 6 0 00-6-6H198a6 6 0 00-6 6v24a6 6 0 006 6h212a6 6 0 006-6zm0 96v-24a6 6 0 00-6-6H198a6 6 0 00-6 6v24a6 6 0 006 6h212a6 6 0 006-6zm0 96v-24a6 6 0 00-6-6H198a6 6 0 00-6 6v24a6 6 0 006 6h212a6 6 0 006-6z"/></symbol><symbol id="mailbox--2mPLC" class="svg-inline--fa fa-mailbox fa-w-18" viewBox="0 0 576 512"><path fill="currentColor" d="M432 64H144A144 144 0 000 208v208a32 32 0 0032 32h512a32 32 0 0032-32V208A144 144 0 00432 64zM256 416H32V208a112 112 0 01224 0zm288 0H288V208c0-45.52-21.54-85.61-54.51-112H432a112.12 112.12 0 01112 112zm-48-224H328a8 8 0 00-8 8v16a8 8 0 008 8h88v80a16 16 0 0016 16h64a16 16 0 0016-16v-96a16 16 0 00-16-16zm-16 96h-32v-64h32zm-296-96h-80a8 8 0 00-8 8v16a8 8 0 008 8h80a8 8 0 008-8v-16a8 8 0 00-8-8z"/></symbol><symbol id="map-marked-alt--VFeyh" class="svg-inline--fa fa-map-marked-alt fa-w-18" viewBox="0 0 576 512"><path fill="currentColor" d="M560 160c-2 0-4 .4-6 1.2L384 224l-10.3-3.6C397 185.5 416 149.2 416 123 416 55 358.7 0 288 0S160 55.1 160 123c0 11.8 4 25.8 10.4 40.6L20.1 216C8 220.8 0 232.6 0 245.7V496c0 9.2 7.5 16 16 16 2 0 4-.4 6-1.2L192 448l172 60.7c13 4.3 27 4.4 40 .2L555.9 456c12.2-4.9 20.1-16.6 20.1-29.7V176c0-9.2-7.5-16-16-16zM176 419.8L31.9 473l-1.3-226.9L176 195.6zM288 32c52.9 0 96 40.8 96 91 0 27-38.1 88.9-96 156.8-57.9-67.9-96-129.8-96-156.8 0-50.2 43.1-91 96-91zm80 444.2l-160-56.5V228.8c24.4 35.3 52.1 68 67.7 85.7 3.2 3.7 7.8 5.5 12.3 5.5s9-1.8 12.3-5.5c12.8-14.5 33.7-39.1 54.3-66.9l13.4 4.7zm32 .2V252.2L544.1 199l1.3 226.9zM312 128c0-13.3-10.8-24-24-24s-24 10.7-24 24c0 13.2 10.8 24 24 24s24-10.7 24-24z"/></symbol><symbol id="menu--3J_j-" viewBox="0 0 15 10"><path d="M0 .5h15m-15 9h15M0 5h15"/></symbol><symbol id="twitter--11-UU" class="svg-inline--fa fa-twitter fa-w-16" viewBox="0 0 512 512"><path fill="currentColor" d="M459.37 151.716c.325 4.548.325 9.097.325 13.645 0 138.72-105.583 298.558-298.558 298.558-59.452 0-114.68-17.219-161.137-47.106 8.447.974 16.568 1.299 25.34 1.299 49.055 0 94.213-16.568 130.274-44.832-46.132-.975-84.792-31.188-98.112-72.772 6.498.974 12.995 1.624 19.818 1.624 9.421 0 18.843-1.3 27.614-3.573-48.081-9.747-84.143-51.98-84.143-102.985v-1.299c13.969 7.797 30.214 12.67 47.431 13.319-28.264-18.843-46.781-51.005-46.781-87.391 0-19.492 5.197-37.36 14.294-52.954 51.655 63.675 129.3 105.258 216.365 109.807-1.624-7.797-2.599-15.918-2.599-24.04 0-57.828 46.782-104.934 104.934-104.934 30.213 0 57.502 12.67 76.67 33.137 23.715-4.548 46.456-13.32 66.599-25.34-7.798 24.366-24.366 44.833-46.132 57.827 21.117-2.273 41.584-8.122 60.426-16.243-14.292 20.791-32.161 39.308-52.628 54.253z"/></symbol></defs><view id="view-bars--3Qle2" viewBox="0 0 43.75 50"></view><view id="view-facebook--xOouj" viewBox="50 0 31.25 50"></view><view id="view-file-signature--3zu7I" viewBox="100 0 56.25 50"></view><view id="view-instagram--nt2yL" viewBox="200 0 43.75 50"></view><view id="view-list-alt--_jY5d" viewBox="250 0 50 50"></view><view id="view-mailbox--2mPLC" viewBox="300 0 56.25 50"></view><view id="view-map-marked-alt--VFeyh" viewBox="400 0 56.25 50"></view><view id="view-menu--3J_j-" viewBox="500 0 75 50"></view><view id="view-twitter--11-UU" viewBox="600 0 50 50"></view><use id="bars--3Qle2" xlink:href="#bars--3Qle2" width="43.75" height="50" x="0" y="0"></use><use id="facebook--xOouj" xlink:href="#facebook--xOouj" width="31.25" height="50" x="50" y="0"></use><use id="file-signature--3zu7I" xlink:href="#file-signature--3zu7I" width="56.25" height="50" x="100" y="0"></use><use id="instagram--nt2yL" xlink:href="#instagram--nt2yL" width="43.75" height="50" x="200" y="0"></use><use id="list-alt--_jY5d" xlink:href="#list-alt--_jY5d" width="50" height="50" x="250" y="0"></use><use id="mailbox--2mPLC" xlink:href="#mailbox--2mPLC" width="56.25" height="50" x="300" y="0"></use><use id="map-marked-alt--VFeyh" xlink:href="#map-marked-alt--VFeyh" width="56.25" height="50" x="400" y="0"></use><use id="menu--3J_j-" xlink:href="#menu--3J_j-" width="75" height="50" x="500" y="0"></use><use id="twitter--11-UU" xlink:href="#twitter--11-UU" width="50" height="50" x="600" y="0"></use></svg>